<svg xmlns="http://www.w3.org/2000/svg" width="208mm" height="166mm" viewBox="0 0 208 166"><defs><marker orient="auto" refY="0" refX="0" id="d" overflow="visible"><path d="M-10.69-4.437L1.328-.017-10.69 4.401c1.92-2.61 1.909-6.18 0-8.84z" fill-rule="evenodd" stroke-width=".688" stroke-linejoin="round" stroke="#000"/></marker><marker id="a" refX="0" refY="0" orient="auto" overflow="visible"><path d="M-10.69-4.437L1.328-.017-10.69 4.401c1.92-2.61 1.909-6.18 0-8.84z" fill-rule="evenodd" stroke="#000" stroke-width=".688" stroke-linejoin="round"/></marker><marker id="b" refX="0" refY="0" orient="auto" overflow="visible"><path d="M-10.69-4.437L1.328-.017-10.69 4.401c1.92-2.61 1.909-6.18 0-8.84z" fill-rule="evenodd" stroke="#000" stroke-width=".688" stroke-linejoin="round"/></marker><marker orient="auto" refY="0" refX="0" id="c" overflow="visible"><path d="M-10.69-4.437L1.328-.017-10.69 4.401c1.92-2.61 1.909-6.18 0-8.84z" fill-rule="evenodd" stroke="#000" stroke-width=".688" stroke-linejoin="round"/></marker></defs><g transform="matrix(.9517 0 0 .9276 -.19 -58.804)"><text y="123.388" x="15.623" style="line-height:1.25" font-weight="400" font-size="10.583" font-family="sans-serif" letter-spacing="0" word-spacing="0" stroke-width=".265"><tspan y="123.388" x="15.623">LoggedOut</tspan></text><ellipse ry="28.464" rx="37.284" cy="120.468" cx="45.035" fill="none" stroke="#000" stroke-width="1.065"/></g><g transform="matrix(.9517 0 0 .9276 59.585 -139.75)"><text y="210.652" x="86.78" style="line-height:1.25" font-weight="400" font-size="10.583" font-family="sans-serif" letter-spacing="0" word-spacing="0" stroke-width=".265"><tspan y="210.652" x="86.78">LoggedIn</tspan></text><ellipse ry="28.464" rx="37.284" cy="207.732" cx="111.184" fill="none" stroke="#000" stroke-width="1.065"/></g><g transform="matrix(.9517 0 0 .9276 -68.105 -5.935)"><text y="144.593" x="158.595" style="line-height:1.25" font-weight="400" font-size="10.583" font-family="sans-serif" letter-spacing="0" word-spacing="0" stroke-width=".265"><tspan y="144.593" x="158.595">Failed</tspan></text><ellipse ry="28.464" rx="37.284" cy="140.647" cx="173.992" fill="none" stroke="#000" stroke-width="1.065"/></g><path d="M75.082 170.655c9.263-2.893 18.526-5.786 27.672-5.547 9.146.239 18.282 3.648 27.365 7.037" fill="none" stroke="#000" stroke-width=".437" marker-end="url(#a)" transform="translate(0 -131)"/><path d="M128.59 193.532c-8.065 2.388-16.187 4.792-24.49 4.719-8.304-.073-16.818-2.615-25.331-5.157" fill="none" stroke="#000" stroke-width=".437" marker-end="url(#b)" transform="translate(0 -131)"/><path d="M58.354 210.624c2.009 3.915 4.017 7.83 6.55 11.38 2.534 3.55 5.591 6.735 8.649 9.92" fill="none" stroke="#000" stroke-width=".437" marker-end="url(#c)" transform="translate(0 -131)"/><text style="line-height:1.25;-inkscape-font-specification:'sans-serif, Normal';font-variant-ligatures:normal;font-variant-caps:normal;font-variant-numeric:normal;font-feature-settings:normal;text-align:start" x="77.79" y="162.163" transform="matrix(1.01291 0 0 .98725 0 -131)" font-weight="400" font-size="6.629" font-family="sans-serif" letter-spacing="0" word-spacing="0" stroke-width=".249"><tspan x="77.79" y="162.163" style="-inkscape-font-specification:'sans-serif, Normal';font-variant-ligatures:normal;font-variant-caps:normal;font-variant-numeric:normal;font-feature-settings:normal;text-align:start">login</tspan></text><text style="line-height:1.25;-inkscape-font-specification:'sans-serif, Normal';font-variant-ligatures:normal;font-variant-caps:normal;font-variant-numeric:normal;font-feature-settings:normal;text-align:start" x="92.94" y="196.71" transform="matrix(1.01291 0 0 .98725 0 -131)" font-weight="400" font-size="6.629" font-family="sans-serif" letter-spacing="0" word-spacing="0" stroke-width=".249"><tspan x="92.94" y="196.71" style="-inkscape-font-specification:'sans-serif, Normal';font-variant-ligatures:normal;font-variant-caps:normal;font-variant-numeric:normal;font-feature-settings:normal;text-align:start">logout</tspan></text><text style="line-height:1.25;-inkscape-font-specification:'sans-serif, Normal';font-variant-ligatures:normal;font-variant-caps:normal;font-variant-numeric:normal;font-feature-settings:normal;text-align:start" x="87.695" y="208.19" transform="matrix(1.01291 0 0 .98725 0 -131)" font-weight="400" font-size="6.629" font-family="sans-serif" letter-spacing="0" word-spacing="0" stroke-width=".249"><tspan x="87.695" y="208.19" style="-inkscape-font-specification:'sans-serif, Normal';font-variant-ligatures:normal;font-variant-caps:normal;font-variant-numeric:normal;font-feature-settings:normal;text-align:start">unauthed</tspan></text><text style="line-height:1.25;-inkscape-font-specification:'sans-serif, Normal';font-variant-ligatures:normal;font-variant-caps:normal;font-variant-numeric:normal;font-feature-settings:normal;text-align:start" x="94.684" y="162.163" transform="matrix(1.01291 0 0 .98725 0 -131)" font-weight="400" font-size="6.629" font-family="sans-serif" letter-spacing="0" word-spacing="0" stroke-width=".249"><tspan x="94.684" y="162.163" style="-inkscape-font-specification:'sans-serif, Normal';font-variant-ligatures:normal;font-variant-caps:normal;font-variant-numeric:normal;font-feature-settings:normal;text-align:start">(accepted)</tspan></text><text style="line-height:1.25;-inkscape-font-specification:'sans-serif, Normal';font-variant-ligatures:normal;font-variant-caps:normal;font-variant-numeric:normal;font-feature-settings:normal;text-align:start" x="30.71" y="235.073" transform="matrix(1.01291 0 0 .98725 0 -131)" font-weight="400" font-size="6.629" font-family="sans-serif" letter-spacing="0" word-spacing="0" stroke-width=".249"><tspan x="30.71" y="235.073" style="-inkscape-font-specification:'sans-serif, Normal';font-variant-ligatures:normal;font-variant-caps:normal;font-variant-numeric:normal;font-feature-settings:normal;text-align:start">(rejected)</tspan></text><text style="line-height:1.25;-inkscape-font-specification:'sans-serif, Normal';font-variant-ligatures:normal;font-variant-caps:normal;font-variant-numeric:normal;font-feature-settings:normal;text-align:start" x="38.232" y="225.674" transform="matrix(1.01291 0 0 .98725 0 -131)" font-weight="400" font-size="6.629" font-family="sans-serif" letter-spacing="0" word-spacing="0" stroke-width=".249"><tspan x="38.232" y="225.674" style="-inkscape-font-specification:'sans-serif, Normal';font-variant-ligatures:normal;font-variant-caps:normal;font-variant-numeric:normal;font-feature-settings:normal;text-align:start">login</tspan></text><path fill="none" d="M207.775 165.839H.161V.186h207.614z"/><path d="M82.185 228.98c-1.47-4.5-2.94-8.998-5.222-12.751-2.283-3.754-5.424-6.804-8.542-9.833" fill="none" stroke="#000" stroke-width=".465" marker-end="url(#d)" transform="translate(0 -131)"/><text style="line-height:1.25;-inkscape-font-specification:'sans-serif, Normal';font-variant-ligatures:normal;font-variant-caps:normal;font-variant-numeric:normal;font-feature-settings:normal;text-align:start" x="79.776" y="222.361" transform="matrix(1.01291 0 0 .98725 0 -131)" font-weight="400" font-size="6.629" font-family="sans-serif" letter-spacing="0" word-spacing="0" stroke-width=".249"><tspan x="79.776" y="222.361" style="-inkscape-font-specification:'sans-serif, Normal';font-variant-ligatures:normal;font-variant-caps:normal;font-variant-numeric:normal;font-feature-settings:normal;text-align:start">unauthed</tspan></text></svg>